<svg width="80" height="32" viewBox="0 0 80 32" xmlns="http://www.w3.org/2000/svg"><title>bodypump</title><g fill="#FFCB06"><path d="M69.876.047c-3.048 0-5.529 2.447-5.529 5.455v20.996c0 3.008 2.48 5.455 5.53 5.455 3.048 0 5.528-2.447 5.528-5.455V5.502c0-3.008-2.48-5.455-5.529-5.455zM73.07 26.5c0 1.736-1.432 3.15-3.193 3.15-1.76 0-3.192-1.414-3.192-3.15V5.502c0-1.737 1.432-3.15 3.192-3.15 1.76 0 3.193 1.413 3.193 3.15v20.997z"/><path d="M77.833 12.021h-2.428v-6.52c0-3.007-2.48-5.454-5.529-5.454-1.77 0-3.348.827-4.36 2.108A5.548 5.548 0 0 0 61.153.047c-3.048 0-5.528 2.447-5.528 5.455v5.035h-6.671a1.16 1.16 0 0 0-1.168 1.152 1.16 1.16 0 0 0 1.168 1.152h6.465v6.318H24.528V12.84h17.574a1.16 1.16 0 0 0 1.168-1.152 1.16 1.16 0 0 0-1.168-1.152h-17.78V5.502c0-3.008-2.481-5.455-5.53-5.455-1.77 0-3.348.827-4.36 2.108A5.548 5.548 0 0 0 10.07.047a5.536 5.536 0 0 0-4.308 2.035 1.142 1.142 0 0 0 .177 1.62c.502.4 1.238.322 1.642-.174a3.197 3.197 0 0 1 2.489-1.176c1.76 0 3.192 1.413 3.192 3.15v20.997c0 1.736-1.432 3.15-3.192 3.15-1.76 0-3.193-1.413-3.193-3.15V9.854A1.16 1.16 0 0 0 5.71 8.702a1.16 1.16 0 0 0-1.168 1.152v2.167H2.01c-1.109 0-2.011.89-2.011 1.984v3.99c0 1.094.902 1.984 2.01 1.984h2.532v6.52c0 3.007 2.48 5.454 5.529 5.454 1.77 0 3.348-.826 4.36-2.107a5.548 5.548 0 0 0 4.362 2.107c3.048 0 5.528-2.447 5.528-5.455v-5.034h31.305v5.034c0 3.008 2.48 5.455 5.529 5.455 1.77 0 3.348-.826 4.36-2.107a5.548 5.548 0 0 0 4.361 2.107c3.049 0 5.53-2.447 5.53-5.455v-6.52h2.427c1.11 0 2.011-.889 2.011-1.983v-3.99c0-1.094-.902-1.984-2.01-1.984zM4.44 17.674H2.336v-3.348H4.44v3.348zM21.985 26.5c0 1.736-1.432 3.15-3.192 3.15-1.761 0-3.193-1.413-3.193-3.15V5.502c0-1.737 1.432-3.15 3.193-3.15 1.76 0 3.192 1.413 3.192 3.15v20.997zm42.362 0c0 1.736-1.432 3.15-3.192 3.15-1.76 0-3.193-1.414-3.193-3.15V5.501c0-1.737 1.432-3.15 3.193-3.15 1.76 0 3.192 1.413 3.192 3.15v20.997zm8.722-13.325V26.5c0 1.736-1.432 3.15-3.193 3.15-1.76 0-3.192-1.413-3.192-3.15V5.502c0-1.737 1.432-3.15 3.192-3.15 1.76 0 3.193 1.413 3.193 3.15v7.672zm4.439 4.5h-2.103v-3.348h2.103v3.348z"/></g></svg>