<svg width="80" height="94" viewBox="0 0 80 94" xmlns="http://www.w3.org/2000/svg"><title>community</title><g fill="#FFCB06"><path d="M56.512 45.575h6.303c9.422 0 17.087-7.67 17.087-17.098 0-8.986-6.964-16.375-15.776-17.047V9.374h1.372a2.294 2.294 0 0 0 2.29-2.293V2.292A2.294 2.294 0 0 0 65.499 0H14.502a2.294 2.294 0 0 0-2.291 2.292v4.79a2.294 2.294 0 0 0 2.29 2.292h1.372v2.058a17.017 17.017 0 0 0-7.756 2.552 1.376 1.376 0 0 0 1.46 2.33 14.269 14.269 0 0 1 6.296-2.122v4.57c-4.785.643-8.488 4.754-8.488 9.715 0 5.407 4.396 9.805 9.8 9.805h.994a24.196 24.196 0 0 0 2.8 4.542h-3.794c-7.907 0-14.339-6.436-14.339-14.347 0-2.239.501-4.383 1.488-6.372a1.374 1.374 0 1 0-2.462-1.223 16.937 16.937 0 0 0-1.774 7.595c0 9.428 7.665 17.097 17.087 17.097h6.303c2.87 2.7 6.4 4.706 10.317 5.749v12.032H19.872a4.886 4.886 0 0 0-4.878 4.882v16.4a2.294 2.294 0 0 0-2.096 2.281v4.79A2.294 2.294 0 0 0 15.188 94h49.624a2.294 2.294 0 0 0 2.29-2.292v-4.79a2.294 2.294 0 0 0-2.095-2.282v-3.712a1.375 1.375 0 1 0-2.75 0v3.702H17.744v-16.39c0-1.174.955-2.13 2.13-2.13h40.255c1.174 0 2.13.956 2.13 2.13v4.07a1.375 1.375 0 1 0 2.749 0v-4.07a4.886 4.886 0 0 0-4.88-4.88H46.196V51.322a24.116 24.116 0 0 0 10.317-5.748zm7.12 41.802h.721v3.872H15.647v-3.872h47.985zm13.521-58.9c0 7.911-6.432 14.347-14.338 14.347h-3.794a24.2 24.2 0 0 0 2.8-4.541h.994c5.404 0 9.8-4.399 9.8-9.806 0-4.959-3.7-9.066-8.488-9.712v-4.571c7.293.665 13.026 6.815 13.026 14.283zM62.921 35.53a24.054 24.054 0 0 0 1.205-7.538v-6.444c3.263.616 5.74 3.489 5.74 6.93a7.06 7.06 0 0 1-6.945 7.052zm-52.787-7.052c0-3.443 2.48-6.316 5.74-6.93v6.444c0 2.631.424 5.165 1.206 7.538a7.06 7.06 0 0 1-6.946-7.052zM14.96 6.623V2.751h50.08v3.872H14.96zm28.486 56.732h-6.892v-11.47a24.215 24.215 0 0 0 6.892 0v11.47zM40 49.381c-11.788 0-21.378-9.596-21.378-21.39V9.374h42.755V27.99c0 11.794-9.59 21.39-21.377 21.39z"/><path d="M52.629 22.956a2.192 2.192 0 0 0-1.78-1.503l-6.13-.89-2.741-5.558A2.192 2.192 0 0 0 40 13.775c-.846 0-1.603.471-1.978 1.23l-2.74 5.557-6.13.891a2.192 2.192 0 0 0-1.78 1.502 2.194 2.194 0 0 0 .557 2.263l4.435 4.326-1.046 6.107a2.194 2.194 0 0 0 .877 2.159 2.197 2.197 0 0 0 2.323.168L40 35.094l5.482 2.884a2.19 2.19 0 0 0 2.323-.168 2.193 2.193 0 0 0 .877-2.158l-1.047-6.108 4.435-4.326c.606-.59.82-1.457.559-2.262zm-7.117 4.817a2.207 2.207 0 0 0-.634 1.954l.91 5.304-4.762-2.504a2.204 2.204 0 0 0-2.052 0l-4.761 2.504.91-5.304a2.206 2.206 0 0 0-.635-1.953l-3.852-3.757 5.322-.774a2.206 2.206 0 0 0 1.662-1.208L40 17.21l2.38 4.826a2.205 2.205 0 0 0 1.661 1.207l5.323.774-3.852 3.756z"/></g></svg>