<svg width="80" height="80" viewBox="0 0 80 80" xmlns="http://www.w3.org/2000/svg" xmlns:xlink="http://www.w3.org/1999/xlink"><title>equipment</title><defs><path d="M65.496 61.416h9.687a1.959 1.959 0 0 0 1.954-1.958V53.57h1.147A1.72 1.72 0 0 0 80 51.85v-2.614c0-.949-.77-1.72-1.716-1.72h-1.147V41.63a1.96 1.96 0 0 0-1.954-1.959h-9.688a1.959 1.959 0 0 0-1.954 1.959v4.105H61.05v-27.12h2.492v3.576a1.96 1.96 0 0 0 1.954 1.959h4.062a1.959 1.959 0 0 0 1.954-1.959v-4.55h1.147a1.72 1.72 0 0 0 1.716-1.72v-2.614c0-.948-.77-1.72-1.716-1.72h-1.147v-4.55c0-1.08-.876-1.958-1.954-1.958h-4.062a1.959 1.959 0 0 0-1.954 1.958v3.577H61.05V1.96A1.96 1.96 0 0 0 59.095 0h-4.533a1.959 1.959 0 0 0-1.955 1.959v8.654H46.41c-.647 0-1.172.526-1.172 1.175 0 .65.525 1.176 1.172 1.176h17.132v3.299H16.714v-3.3h22.504a1.174 1.174 0 1 0 0-2.35H27.392V1.96c0-1.081-.876-1.96-1.954-1.96h-4.533a1.959 1.959 0 0 0-1.955 1.959v8.654h-2.37V7.036c0-1.08-.876-1.958-1.954-1.958h-4.061A1.959 1.959 0 0 0 8.61 7.036v4.55H7.358a1.72 1.72 0 0 0-1.716 1.72v2.615c0 .948.77 1.72 1.716 1.72H8.61v4.55c0 1.08.876 1.958 1.954 1.958h4.062a1.959 1.959 0 0 0 1.954-1.959v-3.576h2.37v27.12h-2.37V40.82a1.96 1.96 0 0 0-1.954-1.96H4.94a1.959 1.959 0 0 0-1.955 1.96v5.887H1.772a1.72 1.72 0 0 0-1.716 1.72v2.614c0 .949.77 1.72 1.716 1.72h1.213v5.888c0 1.08.877 1.958 1.955 1.958h9.687a1.959 1.959 0 0 0 1.954-1.958v-4.915h2.37v6.557a1.174 1.174 0 1 0 2.345 0v-6.557h3.752v17.228h-3.752v-3.385a1.174 1.174 0 1 0-2.345 0v3.384H1.954A1.958 1.958 0 0 0 0 72.92v5.121A1.96 1.96 0 0 0 1.954 80h76.092A1.959 1.959 0 0 0 80 78.041V72.92a1.96 1.96 0 0 0-1.954-1.959H61.049V53.734h2.492v5.724c0 1.08.877 1.958 1.955 1.958zm11.641-11.55h.518v1.354h-.518v-1.354zm-5.625-7.846h3.28v17.046h-3.28V42.02zm-5.625 0h3.28v17.046h-3.28V42.02zm5.625-28.083h.518v1.353h-.518v-1.353zm-5.625-6.509h3.28v14.37h-3.28V7.429zm-7.183 3.185h-3.751V2.35h3.751v8.263zM21.295 2.35h3.752v8.263h-3.752V2.35zM8.505 15.29h-.518v-1.353h.518v1.353zm5.73 6.509h-3.28V7.429h3.28v14.37zM2.92 50.41h-.518v-1.354h.518v1.354zm5.692 7.846H5.33V41.21h3.28v17.046zm5.625 0h-3.28V41.21h3.28v17.046zm40.717-39.644h3.751v27.12h-3.751v-27.12zm-27.56 0h25.215v27.12H27.392v-27.12zm-6.098 0h3.752v27.12h-3.752v-27.12zm56.36 54.699v4.338H2.345v-4.338h75.31zm-50.263-2.35V53.733h25.216V70.96H27.392zm27.56 0V53.733h3.752V70.96h-3.751zM16.715 51.383v-3.3h46.827v3.3H16.714z" id="a"/></defs><use fill="#FFCB06" xlink:href="#a"/></svg>