<svg width="80" height="91" viewBox="0 0 80 91" xmlns="http://www.w3.org/2000/svg"><title>improve-diet</title><path d="M77.841 34.924a26.612 26.612 0 0 0-2.821-6.172 1.332 1.332 0 0 0-2.26 1.41 23.957 23.957 0 0 1 2.537 5.554c1.789 5.74 2.346 12.68 1.568 19.542-.817 7.217-3.007 13.902-6.331 19.333-4.548 7.429-10.985 12.05-18.615 13.362-1.48.255-3.039.384-4.63.384h-.003c-.022 0-2.28-.026-4.076-1.127a6.197 6.197 0 0 0-6.42 0c-1.795 1.1-4.053 1.126-4.072 1.127h-.003a27.41 27.41 0 0 1-4.633-.384c-4.448-.765-8.478-2.633-11.98-5.551a1.333 1.333 0 0 0-1.706 2.046c3.866 3.222 8.319 5.285 13.234 6.13 1.628.28 3.34.422 5.084.422h.004c.122 0 3.014-.017 5.464-1.519a3.508 3.508 0 0 1 3.636 0C44.268 90.983 47.16 91 47.282 91h.004c1.745 0 3.456-.142 5.084-.422 8.41-1.447 15.476-6.494 20.436-14.596 3.526-5.761 5.845-12.824 6.706-20.425.819-7.22.225-14.548-1.67-20.633zm-8.746-12.716c-5.666-4.312-12.573-5.574-19.45-3.555-3.47 1.02-6.428 2.83-8.572 5.24a34.72 34.72 0 0 1 .13-6.364c.719-6.3 3.063-11.43 6.966-15.245A1.331 1.331 0 1 0 46.306.38c-2.152 2.103-3.898 4.616-5.203 7.46-1.245-3.123-4.022-5.777-9.044-6.648-1.91-.33-3.994-.353-6.194-.065l-3.286.43a2.577 2.577 0 0 0-1.917 1.285 2.576 2.576 0 0 0-.136 2.304l1.297 3.05c.868 2.04 1.944 3.825 3.198 5.302 2.79 3.287 5.865 4.543 8.757 4.543 1.701 0 3.339-.436 4.82-1.147-.018.14-.036.279-.052.42a37.285 37.285 0 0 0-.132 6.792c-3.482-3.836-8.266-6.12-13.506-6.44-5.273-.323-10.456 1.364-14.597 4.75-3.733 3.052-6.552 7.377-8.15 12.509C.152 41.369-.39 49.115.635 56.735c1.085 8.072 3.789 15.394 7.82 21.173a1.33 1.33 0 0 0 1.854.33c.603-.42.751-1.25.33-1.854-3.789-5.433-6.335-12.35-7.364-20.004-.974-7.243-.466-14.582 1.429-20.663 1.443-4.632 3.965-8.518 7.293-11.24 3.62-2.96 8.146-4.432 12.747-4.153 4.626.282 8.84 2.327 11.866 5.758 1.15 1.305 2.031 2.061 3.12 2.061h.014c1.183-.007 1.943-.888 2.905-2.004l.32-.371c1.818-2.09 4.386-3.666 7.427-4.56 6.043-1.774 12.11-.667 17.086 3.12a1.332 1.332 0 0 0 1.613-2.12zm-29.901-8.773c-.692.513-2.475 1.673-4.69 1.901-2.701.279-5.21-.92-7.452-3.561-1.08-1.273-2.015-2.828-2.778-4.622l-1.262-2.967 3.198-.418c1.934-.253 3.748-.237 5.393.048 3.414.592 5.72 2.145 6.85 4.615.927 2.024.831 4.149.74 5.004z" fill="#FFCB06"/></svg>