<svg width="90" height="71" viewBox="0 0 90 71" xmlns="http://www.w3.org/2000/svg"><title>improve-heart</title><g fill="#FFCB06"><path d="M89.223 17.672c-.999-4.62-3.094-8.491-6.227-11.51-2.852-2.746-6.512-4.673-10.585-5.57-4.648-1.025-9.56-.703-14.204.932-4.852 1.708-9.04 4.745-12.114 8.782-.36.474-.744.993-1.118 1.55a25.797 25.797 0 0 0-1.06-1.55c-3.072-4.037-7.261-7.074-12.113-8.782C27.158-.11 22.247-.434 17.6.591c-4.074.898-7.735 2.825-10.586 5.571-3.133 3.019-5.228 6.89-6.227 11.51-1.854 8.57-.413 16.963 4.168 24.27a34.514 34.514 0 0 0 5.038 6.244 14.305 14.305 0 0 0-2.276 4.833 1.323 1.323 0 0 0 2.56.654c1.342-5.194 6.049-8.821 11.447-8.821 6.516 0 11.817 5.274 11.817 11.757 0 6.482-5.3 11.756-11.817 11.756-4.807 0-9.097-2.857-10.93-7.278a1.324 1.324 0 0 0-1.726-.715 1.312 1.312 0 0 0-.718 1.717c2.242 5.41 7.492 8.906 13.374 8.906 6.155 0 11.42-3.847 13.504-9.249 2.405 1.206 5.106 2.677 6.903 4.596a3.948 3.948 0 0 0 2.907 1.257 3.911 3.911 0 0 0 2.745-1.111c.952-.924 2.114-1.75 3.02-2.367 1.739-1.185 3.71-2.283 6.39-3.56 2.875-1.371 5.539-2.473 8.142-3.37C76.252 53.434 84.56 45.575 88.128 35.63a1.313 1.313 0 0 0-.8-1.681 1.323 1.323 0 0 0-1.69.796c-3.297 9.19-11.013 16.465-21.168 19.961-2.7.93-5.454 2.069-8.42 3.483-2.807 1.338-4.886 2.498-6.742 3.761-.994.677-2.275 1.59-3.372 2.656a1.318 1.318 0 0 1-1.871-.057c-2.225-2.376-5.41-4.042-8.114-5.384.15-.83.233-1.684.233-2.556 0-7.933-6.487-14.387-14.46-14.387a14.492 14.492 0 0 0-9.99 3.98 31.868 31.868 0 0 1-4.537-5.652c-4.21-6.715-5.533-14.435-3.827-22.325C5.073 10.35 10.468 4.858 18.17 3.16c4.105-.904 8.633-.605 12.75.845 4.363 1.536 8.128 4.264 10.888 7.89.735.967 2.046 3.166 2.06 3.188a1.323 1.323 0 0 0 2.325-.094c.552-1.127 1.325-2.196 2.008-3.094 2.76-3.626 6.525-6.354 10.888-7.89 4.117-1.45 8.645-1.75 12.75-.844 7.702 1.698 13.097 7.189 14.8 15.065.65 3.009.86 6.033.623 8.989a1.317 1.317 0 0 0 1.212 1.415 1.32 1.32 0 0 0 1.423-1.206 33.443 33.443 0 0 0-.674-9.751z"/><path d="M28.278 49.864a1.326 1.326 0 0 0-1.835.355l-6.681 9.856-2.839-3.388a1.326 1.326 0 0 0-1.862-.169 1.31 1.31 0 0 0-.169 1.853l3.965 4.733a1.324 1.324 0 0 0 2.112-.106l7.666-11.309a1.31 1.31 0 0 0-.357-1.825z"/></g></svg>