<svg class="input__icon-name" width="16" height="16" viewBox="0 0 16 16" xmlns="http://www.w3.org/2000/svg"><title>input-name</title><path d="M10.664 6.727c-.766.765-1.695 1.148-2.789 1.148s-2.023-.383-2.79-1.148C4.32 5.96 3.939 5.03 3.939 3.937s.382-2.023 1.148-2.789C5.852.383 6.78 0 7.875 0s2.023.383 2.79 1.148c.765.766 1.148 1.696 1.148 2.79 0 1.093-.383 2.023-1.149 2.789zM2.707 10.95c1.805-.738 3.527-1.107 5.168-1.107 1.64 0 3.363.362 5.168 1.087 1.805.724 2.707 1.674 2.707 2.85v1.969H0V13.78c0-1.176.902-2.119 2.707-2.83z" fill="#7D7E80" fill-rule="evenodd"/></svg>