<svg class="header__logo" width="113" height="48" viewBox="0 0 113 48" xmlns="http://www.w3.org/2000/svg"><title>logo</title><g fill="none" fill-rule="evenodd"><path d="M29.773.003h12.084c.37 0 .62.21.556.467l-6.369 25.922c-.063.258-.415.467-.786.467H23.174c-.37 0-.62-.209-.556-.467L28.987.47c.063-.258.415-.467.786-.467zm16.112 0h12.084c.37 0 .62.21.556.467l-6.369 25.922c-.063.258-.415.467-.786.467H39.286c-.37 0-.62-.209-.556-.467L45.099.47c.063-.258.415-.467.786-.467zm16.112 0H74.08c.371 0 .62.21.557.467l-6.369 25.922c-.063.258-.415.467-.786.467H55.398c-.37 0-.62-.209-.557-.467L61.211.47c.063-.258.415-.467.786-.467zm16.111 0h12.084c.371 0 .62.21.557.467l-6.37 25.922c-.062.258-.414.467-.785.467H71.51c-.37 0-.62-.209-.557-.467L77.323.47c.063-.258.415-.467.785-.467zM.793.092L25.74.005c.371-.001.622.207.56.465L19.93 26.4c-.064.257-.416.467-.786.467-.224 0-.414-.078-.507-.207L.06.82C-.094.604.06.314.402.17.525.121.66.093.792.092zm93.935.115l18.555 25.926c.154.214 0 .504-.343.647-.124.052-.26.08-.393.08H87.622c-.37 0-.62-.21-.557-.468L93.435.467C93.498.21 93.85 0 94.221 0c.224 0 .414.078.507.207z" fill="#FFCB06"/><path d="M33.663 39.973h3.394l-1.181 5.994a11.771 11.771 0 0 1-2.986 1.439c-1.103.358-2.17.537-3.201.537-1.418 0-2.682-.308-3.792-.924a6.605 6.605 0 0 1-2.588-2.545c-.616-1.082-.924-2.303-.924-3.663 0-1.561.408-2.986 1.224-4.275.817-1.29 1.92-2.306 3.309-3.05 1.389-.746 2.921-1.118 4.597-1.118 1.117 0 2.209.204 3.276.612 1.067.409 1.958.956 2.675 1.644l-2.492 2.75a5.357 5.357 0 0 0-1.751-1.225 5.082 5.082 0 0 0-2.073-.451c-.845 0-1.63.215-2.353.644a4.827 4.827 0 0 0-1.729 1.751 4.756 4.756 0 0 0-.645 2.438c0 .76.165 1.45.495 2.074.329.623.787 1.11 1.374 1.46.588.351 1.254.527 1.998.527.745 0 1.612-.23 2.6-.688l.773-3.931zm13.835-7.605c1.432 0 2.71.304 3.834.913a6.665 6.665 0 0 1 2.632 2.524c.63 1.074.945 2.285.945 3.63a8.04 8.04 0 0 1-1.203 4.297 8.612 8.612 0 0 1-3.265 3.083c-1.375.752-2.879 1.128-4.511 1.128-1.433 0-2.71-.308-3.835-.924a6.642 6.642 0 0 1-2.62-2.545c-.624-1.082-.935-2.303-.935-3.663 0-1.576.4-3.008 1.203-4.297a8.525 8.525 0 0 1 3.254-3.04c1.368-.737 2.868-1.106 4.5-1.106zm-.28 3.33c-.801 0-1.56.215-2.277.644a4.83 4.83 0 0 0-1.718 1.762 4.774 4.774 0 0 0-.645 2.427c0 .76.165 1.447.494 2.063.33.616.781 1.103 1.354 1.46a3.497 3.497 0 0 0 1.89.538c.788 0 1.533-.219 2.234-.656a4.803 4.803 0 0 0 1.676-1.772 4.943 4.943 0 0 0 .623-2.449c0-.759-.157-1.443-.472-2.051a3.638 3.638 0 0 0-1.31-1.44 3.404 3.404 0 0 0-1.848-.526zm12.74 8.614h6.38l-.666 3.352H55.36l3.008-15.06h3.931l-2.341 11.708zm14.436-11.708l-3.008 15.06h-3.93l3.007-15.06h3.931zm9.066 0c1.403 0 2.631.265 3.684.795 1.052.53 1.862 1.275 2.427 2.234.566.96.849 2.07.849 3.33 0 1.676-.408 3.176-1.225 4.5-.816 1.326-1.94 2.357-3.372 3.094-1.433.738-3.03 1.107-4.79 1.107H74.33l2.986-15.06h6.144zm2.9 6.789c0-1.074-.315-1.94-.946-2.6-.63-.658-1.467-.988-2.513-.988h-2.277l-1.74 8.68h2.857c.845 0 1.622-.22 2.33-.656a4.611 4.611 0 0 0 1.676-1.815c.409-.774.613-1.647.613-2.621z" fill="#FFF"/></g></svg>