<svg width="80" height="96" viewBox="0 0 80 96" xmlns="http://www.w3.org/2000/svg"><title>lose-weight</title><g fill="#FFCB06"><path d="M64.672 83.275a1.401 1.401 0 0 0-1.86.684 79.556 79.556 0 0 1-4.108 7.682l-1.278 2.017a1.404 1.404 0 0 0 1.182 2.155 1.4 1.4 0 0 0 1.184-.651l1.287-2.03a82.456 82.456 0 0 0 4.276-7.995 1.403 1.403 0 0 0-.683-1.862zm2.142-32.965c-.933-2.216-1.933-4.337-2.9-6.389-3.278-6.955-6.376-13.524-5.796-21.861.459-6.605 2.582-13.514 6.14-19.98A1.401 1.401 0 1 0 61.803.726c-3.753 6.82-5.994 14.13-6.48 21.139-.631 9.068 2.617 15.959 6.057 23.254.665 1.41 1.344 2.857 2.003 4.333h-30.95a1.402 1.402 0 0 0 0 2.806h32.154c.843 2.073 1.475 3.897 1.944 5.611-7.641 3.016-16.618 12.765-20.571 17.059-.67.726-1.36 1.476-1.559 1.652-.073.052-.14.112-.202.178l-4.166 4.437-4.208-4.664a1.406 1.406 0 0 0-.172-.161c-.15-.142-.668-.713-1.169-1.266-3.63-4.01-12.961-14.315-20.982-17.351.466-1.682 1.088-3.47 1.912-5.494h8.516a1.402 1.402 0 0 0 0-2.806h-7.313c.66-1.477 1.339-2.923 2.004-4.333 3.439-7.296 6.688-14.187 6.057-23.255-.487-7.009-2.728-14.319-6.48-21.139a1.4 1.4 0 0 0-1.904-.552 1.404 1.404 0 0 0-.552 1.906c3.558 6.466 5.681 13.375 6.14 19.98.58 8.337-2.517 14.906-5.796 21.862-.967 2.051-1.967 4.173-2.9 6.39-2.032 4.83-4.038 10.637-3.506 17.087.67 8.128 3.687 16.536 9.225 25.707l.016.026 1.286 2.03a1.4 1.4 0 0 0 1.935.432 1.404 1.404 0 0 0 .432-1.936l-1.278-2.016c-5.304-8.786-8.19-16.792-8.823-24.473-.19-2.297-.013-4.524.384-6.657 7.314 2.964 16.427 13.027 19.55 16.477.842.929 1.177 1.296 1.406 1.498l4.48 4.966c.13.145.28.27.441.377v10.58a1.402 1.402 0 1 0 2.803 0V83.667a2.31 2.31 0 0 0 .19-.18l4.436-4.725c.303-.25.75-.73 1.856-1.932C51.453 73.1 60.2 63.602 67.167 60.64c.38 2.094.545 4.279.36 6.528-.23 2.79-.776 5.684-1.623 8.606a1.403 1.403 0 0 0 1.347 1.794c.608 0 1.167-.399 1.345-1.012.899-3.101 1.479-6.182 1.724-9.157.532-6.45-1.474-12.258-3.506-17.088z"/><path d="M16.914 24.589l-6.678-5.675a2.311 2.311 0 0 0-2.493-.34 2.316 2.316 0 0 0-1.354 2.123v.424H2.498a2.34 2.34 0 0 0-2.336 2.338v5.825a2.34 2.34 0 0 0 2.336 2.339h3.89v.424c0 .921.52 1.735 1.355 2.122a2.319 2.319 0 0 0 2.493-.34l6.678-5.674a2.336 2.336 0 0 0 0-3.566zm-7.725 6.45a2.34 2.34 0 0 0-2.333-2.222H2.965v-4.89h3.89a2.34 2.34 0 0 0 2.334-2.222l5.492 4.667-5.492 4.667zm68.313-9.919h-3.89v-.423c0-.922-.52-1.735-1.356-2.122a2.311 2.311 0 0 0-2.492.34l-6.678 5.674a2.336 2.336 0 0 0-.825 1.783c0 .688.3 1.338.825 1.783l6.678 5.675a2.318 2.318 0 0 0 2.493.339 2.316 2.316 0 0 0 1.355-2.123v-.423h3.89a2.34 2.34 0 0 0 2.336-2.34V23.46a2.34 2.34 0 0 0-2.336-2.338zm-.467 7.697h-3.89a2.34 2.34 0 0 0-2.334 2.222l-5.492-4.667 5.492-4.667a2.34 2.34 0 0 0 2.333 2.222h3.89v4.89z"/></g></svg>