<svg width="90" height="55" viewBox="0 0 90 55" xmlns="http://www.w3.org/2000/svg"><title>physio</title><path d="M87.799 0h-4.354c-1.213 0-2.2.992-2.2 2.212v1.746h-61.86c-.73 0-1.321.594-1.321 1.327s.59 1.327 1.32 1.327h4a20.752 20.752 0 0 0-2.368 3.21H8.755v-3.21h2.44c.73 0 1.32-.594 1.32-1.327s-.59-1.327-1.32-1.327h-2.44V2.212C8.755.992 7.768 0 6.555 0H2.2C.987 0 0 .992 0 2.212v12.01c0 1.22.987 2.212 2.2 2.212h4.354c1.214 0 2.2-.992 2.2-2.211v-1.746h10.921a20.956 20.956 0 0 0-1.611 8.086v32.225c0 1.22.987 2.212 2.2 2.212h33.074c1.213 0 2.2-.992 2.2-2.212V44.03h14.343a2.21 2.21 0 0 0 2.201-2.212V33.25c0-.733-.59-1.327-1.32-1.327-.73 0-1.32.594-1.32 1.327v8.123H55.538V20.148c0-2.685.587-5.297 1.685-7.67h10.341a18.247 18.247 0 0 1 1.877 8.085v4.548c0 .733.59 1.328 1.32 1.328.73 0 1.32-.595 1.32-1.328v-4.548a20.95 20.95 0 0 0-1.614-8.086h10.777v1.746c0 1.22.987 2.212 2.2 2.212H87.8a2.21 2.21 0 0 0 2.201-2.212V2.213A2.21 2.21 0 0 0 87.799 0zM5.625 13.47H2.25V2.244h3.375v11.224zm47.25 39.285H20.25v-3.367h32.625v3.367zm0-6.735H20.25v-3.367h32.625v3.367zm-.457-25.931v19.197H20.25V20.498c0-5.35 2.352-10.34 6.47-13.763h30.655a20.459 20.459 0 0 0-4.957 13.354zM81 10.102H58.5a18.854 18.854 0 0 1 2.805-3.367H81v3.367zm6.75 3.367h-3.375V2.245h3.375v11.224z" fill="#FFCB06"/></svg>