<svg width="80" height="60" viewBox="0 0 80 60" xmlns="http://www.w3.org/2000/svg"><title>pilates</title><g fill="#FFCB06"><path d="M77.966 15.682h.003-.003zm.079-2.293H43.871a1.18 1.18 0 0 0-1.173 1.187 1.18 1.18 0 0 0 1.173 1.188h33.783v41.86H22.26a14.622 14.622 0 0 0 6.527-12.2v-29.66h7.72a1.18 1.18 0 0 0 1.173-1.188 1.18 1.18 0 0 0-1.173-1.188H28.74C28.14 5.905 21.935 0 14.394 0 6.457 0 0 6.54 0 14.576v30.848C0 53.46 6.457 60 14.394 60h63.651C79.123 60 80 59.112 80 58.02V15.368c0-1.091-.877-1.98-1.955-1.98zM14.394 2.376c6.643 0 12.047 5.473 12.047 12.2v22.881c-2.573-3.977-7.012-6.61-12.047-6.61-5.036 0-9.475 2.633-12.048 6.61v-22.88c0-6.728 5.405-12.201 12.048-12.201zM2.346 45.423c0-6.727 5.404-12.2 12.047-12.2 6.643 0 12.048 5.473 12.048 12.2 0 6.728-5.405 12.201-12.048 12.201s-12.047-5.473-12.047-12.2z"/><path d="M14.188 36.136a8.862 8.862 0 0 0-7.795 4.644 1.164 1.164 0 1 0 2.045 1.109 6.537 6.537 0 0 1 5.75-3.426A6.544 6.544 0 0 1 20.724 45a6.544 6.544 0 0 1-6.536 6.536 6.497 6.497 0 0 1-5.877-3.672 1.163 1.163 0 1 0-2.091 1.021 8.808 8.808 0 0 0 7.968 4.979c4.887 0 8.863-3.977 8.863-8.864 0-4.887-3.976-8.864-8.863-8.864z"/></g></svg>