<svg width="90" height="57" viewBox="0 0 90 57" xmlns="http://www.w3.org/2000/svg"><title>quote-mark</title><path d="M87.185 5.42c-13.535 0-25.226 7.739-30.6 18.869a18.657 18.657 0 0 1 9.503-2.577c10.082 0 18.295 7.914 18.295 17.644C84.383 49.086 76.17 57 66.088 57c-10.08 0-18.28-7.915-18.28-17.644 0-.347.012-.689.033-1.03-.012-.108-.033-.213-.033-.322C47.808 17.044 65.472 0 87.185 0 88.749 0 90 1.204 90 2.7c0 1.516-1.25 2.72-2.815 2.72zm-47.811 0c-13.54 0-25.24 7.743-30.614 18.88a18.638 18.638 0 0 1 9.52-2.588c10.08 0 18.278 7.914 18.278 17.644C36.558 49.086 28.36 57 18.28 57S0 49.085 0 39.356c0-.347.012-.689.032-1.028C.021 38.22 0 38.113 0 38.004 0 17.044 17.66 0 39.374 0c1.553 0 2.818 1.204 2.818 2.7 0 1.516-1.265 2.72-2.818 2.72z" fill="#FFCB06" fill-rule="evenodd"/></svg>