<svg width="23" height="18" viewBox="0 0 23 18" xmlns="http://www.w3.org/2000/svg"><title>social-twitter</title><path d="M22.125 2.156c-.563.875-1.312 1.656-2.25 2.344v.563c0 3.28-1.18 6.257-3.54 8.93C13.978 16.663 10.845 18 6.938 18c-2.5 0-4.812-.687-6.937-2.063.5.063.86.094 1.078.094 2.094 0 3.969-.656 5.625-1.968a4.563 4.563 0 0 1-2.625-.915 4.294 4.294 0 0 1-1.594-2.226c.375.062.657.094.844.094.313 0 .719-.063 1.219-.188-1.031-.219-1.899-.742-2.602-1.57A4.32 4.32 0 0 1 .891 6.375v-.047c.687.375 1.375.563 2.062.563C1.61 6.016.938 4.75.938 3.094c0-.782.203-1.531.609-2.25 2.406 2.969 5.515 4.547 9.328 4.734-.063-.219-.094-.562-.094-1.031 0-1.281.438-2.36 1.313-3.234C12.969.436 14.047 0 15.328 0s2.375.484 3.281 1.453c.938-.156 1.907-.531 2.907-1.125-.313 1.094-.985 1.938-2.016 2.531.969-.093 1.844-.328 2.625-.703z" fill-rule="evenodd"/></svg>