<svg width="21" height="21" viewBox="0 0 21 21" xmlns="http://www.w3.org/2000/svg"><title>social-instagram</title><path d="M13.715 10.287a3.435 3.435 0 0 0-3.428-3.429 3.435 3.435 0 0 0-3.429 3.429 3.435 3.435 0 0 0 3.429 3.428 3.435 3.435 0 0 0 3.428-3.428zm1.848 0a5.27 5.27 0 0 1-5.276 5.276 5.27 5.27 0 0 1-5.277-5.276 5.27 5.27 0 0 1 5.277-5.277 5.27 5.27 0 0 1 5.276 5.277zm1.447-5.492a1.23 1.23 0 0 1-1.232 1.233c-.683 0-1.233-.55-1.233-1.233s.55-1.232 1.233-1.232 1.232.55 1.232 1.232zM10.287 1.85c-1.5 0-4.715-.12-6.067.415a3.289 3.289 0 0 0-1.179.777 3.28 3.28 0 0 0-.777 1.179c-.535 1.352-.415 4.567-.415 6.067s-.12 4.714.415 6.067c.188.468.415.817.777 1.178.362.362.71.59 1.179.777 1.352.536 4.567.415 6.067.415s4.714.12 6.067-.415a3.289 3.289 0 0 0 1.178-.777c.362-.361.59-.71.777-1.178.536-1.353.415-4.567.415-6.067s.12-4.715-.415-6.067a3.289 3.289 0 0 0-.777-1.179 3.289 3.289 0 0 0-1.178-.777C15 1.73 11.787 1.85 10.287 1.85zm10.285 8.438c0 1.42.014 2.825-.067 4.245-.08 1.647-.455 3.107-1.66 4.313-1.206 1.205-2.666 1.58-4.313 1.66-1.42.08-2.826.067-4.245.067-1.42 0-2.826.014-4.246-.067-1.647-.08-3.107-.455-4.312-1.66C.523 17.639.149 16.179.068 14.532-.012 13.112 0 11.706 0 10.287 0 8.867-.013 7.46.068 6.04c.08-1.647.455-3.107 1.66-4.312C2.935.523 4.395.149 6.042.068 7.461-.012 8.867 0 10.287 0s2.825-.014 4.245.067c1.647.08 3.107.455 4.313 1.66 1.205 1.206 1.58 2.666 1.66 4.313.08 1.42.067 2.826.067 4.246z" fill-rule="evenodd"/></svg>