<svg width="75" height="78" viewBox="0 0 75 78" xmlns="http://www.w3.org/2000/svg"><title>spinning</title><g fill="#FFCB06"><path d="M40.164 56.718a1.882 1.882 0 0 0-1.056-.994l-2.249-.851a1.889 1.889 0 0 0-2.434 1.11l-.044.115-2.163-.877c.034-.364.053-.732.053-1.105 0-6.475-5.239-11.742-11.678-11.742-6.44 0-11.678 5.267-11.678 11.742 0 6.476 5.238 11.743 11.678 11.743 3.569 0 6.767-1.62 8.911-4.165l2.421.965-.012.034a1.906 1.906 0 0 0 1.103 2.448l2.249.851c.218.083.443.122.664.122.764 0 1.486-.47 1.77-1.231l2.512-6.711a1.897 1.897 0 0 0-.047-1.454zM20.593 63.58c-5.19 0-9.41-4.245-9.41-9.462 0-5.218 4.22-9.463 9.41-9.463 5.188 0 9.41 4.245 9.41 9.463 0 .068-.004.135-.005.203l-2.676-1.086c-.432-3.348-3.284-5.943-6.73-5.943-3.742 0-6.787 3.062-6.787 6.826 0 3.763 3.045 6.825 6.788 6.825a6.72 6.72 0 0 0 3.899-1.245l2.758 1.1a9.355 9.355 0 0 1-6.657 2.782zm-2.66-7.652a3.506 3.506 0 0 0 1.958 1.937l1.71.681a4.478 4.478 0 0 1-1.009.116c-2.492 0-4.52-2.038-4.52-4.544 0-2.507 2.028-4.545 4.52-4.545a4.522 4.522 0 0 1 4.077 2.586l-2.16-.877c-1.762-.715-3.806.131-4.557 1.886a3.535 3.535 0 0 0-.018 2.76zm14.79 4.598l-11.997-4.782a1.25 1.25 0 0 1-.698-.69 1.26 1.26 0 0 1 1.632-1.657l11.92 4.836-.856 2.293zm2.987 3.199l-1.542-.583 2.246-6 1.541.584-2.245 5.999z"/><path d="M74.06 54.022c-.484-1.276-1.455-2.52-2.968-3.802-.985-.836-2.09-1.505-3.222-2.055V32.006c0-.63-.508-1.14-1.135-1.14-.626 0-1.134.51-1.134 1.14v15.212a36.872 36.872 0 0 0-2.776-.863 93.015 93.015 0 0 0-2.486-.592V24.322l3.469-3.822a1.145 1.145 0 0 0-.073-1.61 1.13 1.13 0 0 0-1.602.073l-1.794 1.976v-2.642l4.33-7.22c.549.252.933.807.933 1.452v12.357c0 .63.508 1.14 1.134 1.14.626 0 1.134-.51 1.134-1.14V12.53a3.881 3.881 0 0 0-2.027-3.41l1.339-2.232a4.519 4.519 0 0 0 .102-4.51 4.469 4.469 0 0 0-3.815-2.37l-.126-.005a4.517 4.517 0 0 0-4.034 2.22l-8.096 13.715a4.52 4.52 0 0 0-.079 4.496 4.472 4.472 0 0 0 3.96 2.36 4.502 4.502 0 0 0 2.977-1.13v1.774l-3.357 3.698h-.343c-3.879 0-7.034-3.173-7.034-7.073 0-1.025.227-2.058.658-2.987l2.325-5.017c.265-.57.02-1.249-.549-1.515a1.132 1.132 0 0 0-1.507.552l-2.325 5.016a9.46 9.46 0 0 0-.87 3.952c0 5.157 4.172 9.353 9.301 9.353h.844c.319 0 .623-.135.838-.371l2.019-2.225v18.43c-7.632-1.714-22.52-4.918-32.377-6.644L19.55 27.349h2.707c1.846 0 3.348-1.51 3.348-3.366v-4.66c0-1.856-1.502-3.367-3.348-3.367H9.084c-1.845 0-3.347 1.51-3.347 3.367v4.66c0 1.856 1.501 3.366 3.347 3.366h1.447l5.606 10.104a16.74 16.74 0 0 0-7.88 2.39 1.144 1.144 0 0 0-.386 1.566 1.13 1.13 0 0 0 1.556.389 14.477 14.477 0 0 1 7.494-2.086c5.9 0 42.572 8.099 45.311 8.845 2.318.631 5.254 1.59 7.399 3.407 1.194 1.012 1.972 1.979 2.312 2.873a10.666 10.666 0 0 1-1.162 9.812c-1.89 2.762-4.887 4.346-8.22 4.346h-45.64c-8.029 0-14.56-6.568-14.56-14.641 0-2.833.805-5.582 2.33-7.949.34-.528.19-1.234-.336-1.577a1.13 1.13 0 0 0-1.568.338 16.93 16.93 0 0 0-2.694 9.188c0 8.2 5.83 15.056 13.542 16.597l-1.445 4.401a1.914 1.914 0 0 0 .263 1.71c.354.492.927.787 1.531.787h47.034c.605 0 1.177-.295 1.531-.787a1.914 1.914 0 0 0 .264-1.71l-1.339-4.076h1.087c4.09 0 7.767-1.944 10.088-5.334a12.958 12.958 0 0 0 1.412-11.92zM9.085 25.068c-.595 0-1.08-.487-1.08-1.086v-4.66c0-.599.485-1.086 1.08-1.086h13.173c.595 0 1.08.487 1.08 1.086v4.66c0 .599-.485 1.086-1.08 1.086H9.084zm9.71 12.492l-5.667-10.21h3.835l5.882 10.777a82.64 82.64 0 0 0-4.051-.566zm38.223-18.14a2.234 2.234 0 0 1-1.999 1.09 2.225 2.225 0 0 1-1.894-1.173 2.25 2.25 0 0 1 .038-2.236L61.26 3.386a2.243 2.243 0 0 1 2.007-1.105l.126.005a2.224 2.224 0 0 1 1.898 1.18 2.25 2.25 0 0 1-.05 2.243l-8.223 13.71zm-42.51 56.147l1.41-4.292h43.169l1.41 4.292H14.506z"/></g></svg>