<svg width="80" height="49" viewBox="0 0 80 49" xmlns="http://www.w3.org/2000/svg"><title>step</title><path d="M79.822 46.744l-4.87-31.92a1.178 1.178 0 0 0-.028-.132V6.549c0-3.6-2.946-6.53-6.568-6.53h-15.65a1.17 1.17 0 0 0-1.174 1.167 1.17 1.17 0 0 0 1.174 1.168h15.65c2.327 0 4.22 1.882 4.22 4.195v7.282H7.268V6.55c0-2.313 1.893-4.195 4.22-4.195h33.756a1.17 1.17 0 0 0 1.175-1.168A1.17 1.17 0 0 0 45.244.02H11.488C7.867.02 4.92 2.95 4.92 6.55v8.143a1.145 1.145 0 0 0-.028.131L3.803 21.96a1.168 1.168 0 0 0 .985 1.329c.64.096 1.24-.342 1.337-.979l.937-6.143h65.72l4.65 30.48H62.473v-6.554a1.954 1.954 0 0 0-1.956-1.946h-41.19a1.954 1.954 0 0 0-1.957 1.946v6.555H2.412l2.615-17.142a1.168 1.168 0 0 0-.985-1.33 1.173 1.173 0 0 0-1.337.98L.022 46.744c-.085.561.079 1.13.451 1.56.372.43.913.678 1.484.678h15.805a1.954 1.954 0 0 0 1.957-1.946V40.48h40.407v6.555c0 1.073.877 1.946 1.956 1.946h15.805a1.96 1.96 0 0 0 1.484-.678 1.93 1.93 0 0 0 .45-1.56z" fill="#FFCB06"/></svg>